# xmcd
#
# Track frame offsets: 
#        150
#        25443
#        47899
#        71033
#        98250
#        129450
#        154292
#        182237
#        209804
#        238916
#
# Disc length: 3477 seconds
#
# Revision: 1
# Processed by: cddbd v1.5.2PL0 Copyright (c) Steve Scherf et al.
# Submitted via: ExactAudioCopy v1.0b3
#
DISCID=940d930a
DTITLE=Ngoc Ha - Mau Thoi Gian
DYEAR=2011
DGENRE=Blues
TTITLE0=Ru toi giac mong
TTITLE1=Cho em quen tuoi ngoc
TTITLE2=Duyen the
TTITLE3=Tren dinh Phu Van
TTITLE4=Co don
TTITLE5=Thu ca
TTITLE6=Hoai cam
TTITLE7=Con co
TTITLE8=Ha Noi ngay thang cu
TTITLE9=Dong song xanh (Le beau Danube bleu)
EXTD=
EXTT0=
EXTT1=
EXTT2=
EXTT3=
EXTT4=
EXTT5=
EXTT6=
EXTT7=
EXTT8=
EXTT9=
PLAYORDER=
